<?xml version="1.0" encoding="utf-8"?>
<!-- Generator: Adobe Illustrator 28.0.0, SVG Export Plug-In . SVG Version: 6.00 Build 0)  -->
<svg version="1.1" id="Capa_1" xmlns="http://www.w3.org/2000/svg" xmlns:xlink="http://www.w3.org/1999/xlink" x="0px" y="0px"
	 viewBox="0 0 361.3 363" style="enable-background:new 0 0 361.3 363;" xml:space="preserve">
<style type="text/css">
	.st0{fill:#D7025A;}
</style>
<g>
	<path class="st0" d="M361.2,156.6c0-7-0.6-14.5-1.7-22.3C349.4,59.6,285.2,2,210.1,0.3C188.6-0.1,166.9,0,145.9,0
		c-9.1,0-18.4,0.1-27.5,0.1c0,0,0,0-0.1,0c-0.2,0-0.6,0-0.8,0L81,0v17.6L0,17.3v41.4c0,53.4-0.1,101.7,0,150.7
		c0,6.2,0.6,12.9,1.6,20.1c7.6,51.9,52.4,94,104.4,98.1c11.6,0.9,23.2,0.9,34.4,0.8c3.3,0,6.7,0,10,0c0.1,0,0.2,0,0.2,0
		c1.1,0,2.2,0,3.2-0.1H194v-49l0,0c0-4.2,0-8.3,0-12.7c4.6,1.4,9.2,2.9,14,4.2c-0.2,17.3-0.2,32.3,0,47.1V363h49l0,0
		c0.3,0,0.7,0,1,0c7.7,0,16-0.4,24.2-2.1c46.3-9,78.7-48.6,78.9-96.4C361.3,230.3,361.3,195,361.2,156.6z M151.5,272.9
		c0,4.2,0,8.6,0,12.8c-2.3,0-4.7,0-7.1,0c-2.1,0-4.1,0-6.2,0c-11,0-21.4,0.1-31.7-1c-32.2-3.5-59.9-31.5-63-64
		c-0.9-9.6-0.9-19.1-0.9-29.3c0-3.5,0-7,0-10.5c-0.1-10.2-0.1-20.4,0-30.6V60.1h0.1l0,0h32.7c0,0-0.3,35.8-0.6,47.9
		c0.2,3.3,0.4,6.7,0.8,10c5.2,53.3,30.7,96.3,75.9,127.9C151.5,254.9,151.5,264,151.5,272.9z M318.6,264.3
		c-0.1,27.9-18.5,50.1-45.7,55.1c-5.2,0.9-10.7,1-16.6,1c-1.9,0-3.8,0-5.7,0c-0.1-12.7-0.1-25.4-0.1-38.3v-6.2h1.4
		c7.8,0,15.4,0,22.9,0c12.5-0.1,21.7-9.3,21.6-21.5c-0.1-12-9.2-20.9-21.8-21.1c-4.8-0.1-9.6-0.1-14.5,0c-3.7,0-7.2,0-10.9,0
		c-61-0.6-112.3-40.3-127.5-98.9c-3.1-11.8-3.9-24.6-4.3-35.5c-0.6-13-0.4-26.5-0.3-39.5c0-5.3,0.1-10.7,0.1-16c0-0.3,0-0.6,0-0.8
		c0.2,0,0.6,0,0.9,0h24.5c20.4,0,41.4-0.1,62.1,0c56.8,0.3,104.2,41.1,112.6,96.9c0.8,4.9,1.1,10.4,1.1,17.1
		C318.7,196.1,318.7,231.3,318.6,264.3z"/>
	<path class="st0" d="M270.6,150c-0.1,0-0.1,0-0.2,0c-13.1,0.1-23.5,10.6-23.4,23.7c0,6.3,2.6,12.1,7,16.6
		c4.5,4.3,10.4,6.8,16.6,6.8c0.1,0,0.1,0,0.2,0c6.3-0.1,12.2-2.6,16.7-7.1c4.3-4.5,6.8-10.5,6.7-16.7
		C294.1,160.2,283.6,150,270.6,150z"/>
</g>
</svg>
