<?xml version="1.0" encoding="utf-8"?>
<!-- Generator: Adobe Illustrator 28.0.0, SVG Export Plug-In . SVG Version: 6.00 Build 0)  -->
<svg version="1.1" id="Capa_1" xmlns="http://www.w3.org/2000/svg" xmlns:xlink="http://www.w3.org/1999/xlink" x="0px" y="0px"
	 viewBox="0 0 518 160.4" style="enable-background:new 0 0 518 160.4;" xml:space="preserve">
<style type="text/css">
	.st0{fill:#373A36;}
	.st1{fill:#D7025A;}
</style>
<g>
	<g>
		<path class="st0" d="M161.4,158.8l3.3-18.3c1.2,0.4,3.1,0.9,8.2,0.9c11.8,0,16-5.7,19.3-14.8l3.1-8.7L163.5,35h24.7l19.1,55.8h0.5
			L225,35h23.8l-35,93.7c-7.5,20-16.3,31.7-39.5,31.7C167.2,160.4,163.1,159.4,161.4,158.8L161.4,158.8z"/>
		<path class="st0" d="M245.3,81c0-21.7,12.7-44.7,42.3-44.7c29.6,0,42.9,22.2,42.9,44c0,21.4-13,44.8-42.8,44.8
			C258.2,125.2,245.3,102.8,245.3,81z M306,81c0-15.8-5.6-27.5-18.8-27.5c-13,0-17.4,11-17.4,26.8s5.2,27.3,18.3,27.3
			C301.3,107.6,306,96.8,306,81z"/>
		<path class="st0" d="M331.6,117.2l7.8-16.1c0,0,0,0,0,0c3.3,2.3,11.5,7,20.9,7c8.9,0,13.9-2.6,13.9-7.7c0-5.7-9.4-7.3-21.4-13
			c-11.8-5.6-18.9-12.2-18.9-25c0-15.8,12.5-25.9,31.7-25.9c14.4,0,23.3,4.5,27.1,6.8l0,0L384.5,59c-3.3-2.1-9.9-5.4-18.1-5.4
			c-8.2,0-11.6,2.9-11.6,7.5c0,5.7,7.7,7.3,17.4,11.1c13.4,5.6,23.1,11.6,23.1,25.9c0,17.7-12.7,27.1-33.6,27.1
			C346.6,125.2,336.8,120.7,331.6,117.2z"/>
		<path class="st0" d="M402.4,0h23.1v50.8c4.3-4.7,12.5-12.4,26.4-12.4c18.6,0,25.4,11.8,25.4,27.5v59.3h-23.1V70.6
			c0-8.5-2.9-12.9-11.1-12.9c-9.1,0-15.8,8.3-17.6,10.6l0,0v56.8h-23.1L402.4,0L402.4,0z"/>
		<path class="st0" d="M489.6,15.7c0-7.3,5.9-13.5,14.1-13.5c8.2,0,14.3,6.3,14.3,13.5c0,7.5-6.1,13.9-14.3,13.9
			C495.6,29.6,489.6,23.1,489.6,15.7z M492.1,40.5h23.3v84.7h-23.3V40.5z"/>
	</g>
	<g>
		<path class="st1" d="M128.9,64c0-2.5-0.2-5.2-0.6-7.9C124.7,29.3,101.8,8.8,75,8.2C67.3,8,59.6,8.1,52.1,8.1c-3.3,0-6.6,0-9.8,0
			c0,0,0,0,0,0c-0.1,0-0.2,0-0.3,0l-13,0v6.3L0,14.2V29c0,19.1,0,36.3,0,53.8C0,85,0.2,87.4,0.6,90c2.7,18.5,18.7,33.6,37.3,35
			c4.1,0.3,8.3,0.3,12.3,0.3c1.2,0,2.4,0,3.6,0c0,0,0.1,0,0.1,0c0.4,0,0.8,0,1.2,0h14.3v-17.5l0,0c0-1.5,0-3,0-4.5
			c1.6,0.5,3.3,1,5,1.5c-0.1,6.2-0.1,11.5,0,16.8v16.1h17.5l0,0c0.1,0,0.2,0,0.4,0c2.7,0,5.7-0.2,8.6-0.8
			c16.5-3.2,28.1-17.4,28.2-34.4C129,90.2,129,77.7,128.9,64z M54.1,105.5c0,1.5,0,3.1,0,4.6c-0.8,0-1.7,0-2.5,0c-0.8,0-1.5,0-2.2,0
			c-3.9,0-7.6,0-11.3-0.4c-11.5-1.2-21.4-11.2-22.5-22.8c-0.3-3.4-0.3-6.8-0.3-10.4c0-1.2,0-2.5,0-3.7c0-3.7,0-7.3,0-10.9V29.5h0
			l0,0h11.7c0,0-0.1,12.8-0.2,17.1c0.1,1.2,0.2,2.4,0.3,3.6c1.9,19,11,34.4,27.1,45.6C54.1,99,54.1,102.3,54.1,105.5z M113.7,102.4
			c0,10-6.6,17.9-16.3,19.7c-1.9,0.3-3.8,0.4-5.9,0.4c-0.7,0-1.4,0-2,0c0-4.5,0-9.1,0-13.7v-2.2h0.5c2.8,0,5.5,0,8.2,0
			c4.4,0,7.7-3.3,7.7-7.7c0-4.3-3.3-7.5-7.8-7.5c-1.7,0-3.4,0-5.2,0c-1.3,0-2.6,0-3.9,0C67.2,91.1,48.9,76.9,43.4,56
			c-1.1-4.2-1.4-8.8-1.5-12.7c-0.2-4.6-0.2-9.5-0.1-14.1c0-1.9,0-3.8,0-5.7c0-0.1,0-0.2,0-0.3c0.1,0,0.2,0,0.3,0h8.7
			c7.3,0,14.8,0,22.2,0c20.3,0.1,37.2,14.7,40.2,34.6c0.3,1.7,0.4,3.7,0.4,6.1C113.7,78.1,113.7,90.6,113.7,102.4z"/>
		<path class="st1" d="M96.6,61.6C96.5,61.6,96.5,61.6,96.6,61.6c-4.8,0-8.5,3.8-8.4,8.5c0,2.3,0.9,4.3,2.5,5.9
			c1.6,1.5,3.7,2.4,5.9,2.4c0,0,0,0,0.1,0c2.3,0,4.4-0.9,6-2.5c1.5-1.6,2.4-3.7,2.4-6C105,65.2,101.2,61.6,96.6,61.6z"/>
	</g>
</g>
</svg>
